<?xml version="1.0" encoding="UTF-8"?>
<svg xmlns="http://www.w3.org/2000/svg" xmlns:xlink="http://www.w3.org/1999/xlink" width="909.2pt" height="937.7pt" viewBox="0 0 909.2 937.7" version="1.1">
<defs>
<clipPath id="clip1">
  <path d="M 551 625 L 715 625 L 715 937.699219 L 551 937.699219 Z M 551 625 "/>
</clipPath>
</defs>
<g id="surface1">
<path style=" stroke:none;fill-rule:evenodd;fill:rgb(10.594177%,51.756287%,54.881287%);fill-opacity:1;" d="M 59.753906 755.769531 C 76.429688 757.300781 101.296875 770.449219 113.664063 778.007813 C 138.144531 792.96875 135.5625 799.105469 151.398438 802.054688 C 225.617188 815.890625 106.984375 729.351563 86.710938 720.078125 C 101.144531 678.898438 161.59375 609.945313 146.503906 602.652344 C 128.898438 599.105469 96.882813 659.46875 62.554688 676.960938 C 61.46875 628.71875 68.109375 531.015625 16.585938 527.125 C 8.046875 549.945313 12.59375 594.875 12.742188 620.757813 C 14.261719 653.226563 15.242188 690.277344 13.382813 722.621094 C 11.976563 747.039063 0.09375 790.980469 16.769531 804.578125 C 52.613281 833.800781 57.8125 780.210938 59.753906 755.769531 Z M 59.753906 755.769531 "/>
<g clip-path="url(#clip1)" clip-rule="nonzero">
<path style=" stroke:none;fill-rule:evenodd;fill:rgb(10.594177%,51.756287%,54.881287%);fill-opacity:1;" d="M 657.503906 703.125 C 625.195313 696.5625 559.972656 601.667969 552.109375 640.710938 C 547.175781 665.199219 623.453125 734.792969 636.59375 742.183594 C 626.921875 782.9375 529.445313 894.199219 565.941406 937.617188 C 596.066406 932.289063 635.847656 831.695313 658.085938 789.03125 C 716.578125 676.796875 748.671875 534.320313 657.503906 703.125 Z M 657.503906 703.125 "/>
</g>
<path style=" stroke:none;fill-rule:evenodd;fill:rgb(10.594177%,51.756287%,54.881287%);fill-opacity:1;" d="M 466.578125 760.476563 C 533.796875 593.496094 501.65625 828.707031 560.855469 826.148438 C 576.113281 800.273438 555.117188 674.425781 521.230469 649.609375 C 472.65625 614.039063 450.824219 741.011719 425.828125 755.890625 C 421.558594 720.898438 432.488281 655.78125 403.171875 640.289063 C 386.023438 649.652344 388.214844 663.761719 387.96875 686.675781 C 387.183594 761.636719 406.96875 908.566406 466.578125 760.476563 Z M 466.578125 760.476563 "/>
<path style=" stroke:none;fill-rule:evenodd;fill:rgb(10.594177%,51.756287%,54.881287%);fill-opacity:1;" d="M 746.921875 758.261719 C 736.640625 740.222656 803.980469 682.019531 834.589844 670.910156 C 863.671875 660.359375 909.261719 672.363281 863.898438 623.410156 C 804.871094 633.996094 552.199219 886.851563 860.96875 739.457031 C 878.421875 754.84375 858.53125 776.148438 898.640625 774.488281 C 902.71875 699.257813 881.96875 699.121094 853.160156 710.707031 C 820.25 723.9375 777.289063 755.402344 756.75 758.441406 C 752.480469 759.070313 749.121094 761.613281 746.921875 758.261719 Z M 746.921875 758.261719 "/>
<path style=" stroke:none;fill-rule:evenodd;fill:rgb(10.594177%,51.756287%,54.881287%);fill-opacity:1;" d="M 256.617188 605.765625 C 304.648438 561.640625 365.933594 581.007813 408.996094 614.96875 C 489.5625 678.511719 556.144531 489.417969 541.152344 485.917969 C 538.882813 485.390625 513.5625 527.761719 509.507813 534 C 493.777344 554.324219 474.644531 573.722656 455.691406 575.574219 C 380.566406 582.925781 324.628906 490.652344 220.636719 595.03125 L 192.03125 633.441406 C 155.710938 671.847656 155.550781 737.917969 186.933594 775.910156 C 234.398438 833.371094 319.21875 825.65625 356.105469 761.867188 C 397.339844 690.554688 333.710938 599.917969 263.378906 633.378906 C 194.429688 671.378906 212.488281 729.117188 241.488281 749.140625 C 302.046875 790.953125 375.421875 694.824219 288.246094 729.808594 C 275.453125 734.941406 261.761719 728.734375 256.214844 722.09375 C 237.257813 699.398438 253.695313 666.65625 274.09375 658.960938 C 337.824219 634.921875 360.449219 728.003906 309.023438 770.515625 C 287.46875 788.332031 217.90625 787.695313 198.945313 728.121094 C 182.636719 667.773438 227.519531 629.816406 256.617188 605.765625 Z M 256.617188 605.765625 "/>
<path style=" stroke:none;fill-rule:evenodd;fill:rgb(10.594177%,51.756287%,54.881287%);fill-opacity:1;" d="M 609.695313 529.355469 C 635.746094 504.007813 616.425781 408.214844 601.386719 410.128906 C 593.269531 441.886719 614.316406 469.707031 582.796875 480.824219 C 506.828125 507.617188 438.574219 415.492188 421.617188 503.699219 C 503.59375 486.734375 582.316406 556 609.695313 529.355469 Z M 609.695313 529.355469 "/>
<path style=" stroke:none;fill-rule:evenodd;fill:rgb(96.484375%,85.9375%,70.896912%);fill-opacity:1;" d="M 543.367188 137.980469 C 589.34375 191.089844 641.214844 134.261719 658.507813 157.242188 C 680.191406 186.054688 611.394531 235.253906 634.199219 267.5 C 639.078125 274.398438 645.351563 283.8125 659.679688 299.542969 C 667.933594 226.375 652.183594 263.546875 686.933594 193.691406 C 732.78125 103.140625 630.003906 115.929688 581.632813 130.371094 C 555.722656 138.109375 565.246094 134.839844 543.367188 137.980469 Z M 543.367188 137.980469 "/>
<path style=" stroke:none;fill-rule:evenodd;fill:rgb(91.40625%,47.459412%,27.830505%);fill-opacity:1;" d="M 205.046875 386.527344 C 222.507813 397.113281 244.324219 409.617188 265.296875 414.125 L 286.585938 417.765625 C 267.839844 396.027344 227.1875 395.621094 233.722656 356.253906 C 243.789063 295.589844 349.203125 293.871094 292.496094 210.082031 C 281.203125 222.632813 282.269531 252.816406 259.878906 268.652344 C 202.113281 309.496094 132.363281 342.46875 205.046875 386.527344 Z M 205.046875 386.527344 "/>
<path style=" stroke:none;fill-rule:evenodd;fill:rgb(52.146912%,65.818787%,66.601563%);fill-opacity:1;" d="M 690.246094 371.777344 C 713.246094 363.109375 727.242188 359.476563 743.988281 345.730469 C 766.988281 303.824219 642.089844 226.480469 634.890625 244.863281 C 779.371094 370.914063 517.78125 331.542969 583.140625 439.125 C 593.265625 435.738281 625.289063 403.621094 637.21875 395.109375 C 652.316406 383.089844 670.351563 379.269531 690.246094 371.777344 Z M 690.246094 371.777344 "/>
<path style=" stroke:none;fill-rule:evenodd;fill:rgb(91.796875%,10.594177%,14.109802%);fill-opacity:1;" d="M 331.980469 526.277344 C 366.019531 522.175781 392.296875 518.976563 412.8125 499.390625 C 373.160156 499.632813 349.09375 519.957031 332.570313 487.976563 C 301.785156 428.398438 394.191406 334.878906 299.652344 318.863281 C 327.152344 417.691406 214.726563 534.859375 331.980469 526.277344 Z M 331.980469 526.277344 "/>
<path style=" stroke:none;fill-rule:evenodd;fill:rgb(97.65625%,79.296875%,52.146912%);fill-opacity:1;" d="M 370.972656 141.847656 C 381.929688 111.75 420.296875 45.480469 456.945313 83.878906 C 488.027344 116.441406 502.628906 217.585938 571.382813 182.410156 C 570.683594 180.621094 555.753906 172.113281 544.128906 154.738281 C 521.539063 120.980469 509.449219 90.878906 489.660156 70.039063 C 423.148438 -0.0117188 313.765625 102.289063 370.972656 141.847656 Z M 370.972656 141.847656 "/>
<path style=" stroke:none;fill-rule:evenodd;fill:rgb(97.65625%,70.117188%,9.423828%);fill-opacity:1;" d="M 265.636719 244.195313 C 269.621094 239.242188 277.15625 175.644531 290.539063 170.355469 C 326.339844 166.164063 347.4375 176.515625 371.695313 185.824219 C 400.171875 196.757813 427.324219 214.050781 455.671875 182.523438 C 455.953125 182.207031 456.757813 181.113281 457.460938 180.574219 C 457.484375 174.230469 271.515625 100.300781 255.828125 136.460938 C 243.234375 165.492188 256.53125 221.257813 265.636719 244.195313 Z M 265.636719 244.195313 "/>
</g>
</svg>
